# xmcd
#
# Track frame offsets:
#	150
#	4817
#	28585
#	47350
#	72807
#	88775
#	111175
#	140477
#	171317
#	190152
#
# Disc length: 2631 seconds
#
# Revision: 3
# Processed by: cddbd v1.5.2PL0 Copyright (c) Steve Scherf et al.
# Submitted via: audiograbber 1.83.01
#
DISCID=800a450a
DTITLE=Durutti Column - Obey The Time
DYEAR=1990
DGENRE=New Age
TTITLE0=Vino Della Casa Blanco
TTITLE1=Hotel Of The Lake 1990
TTITLE2=Fridays
TTITLE3=Home
TTITLE4=Art And Freight
TTITLE5=Spanish Reggae
TTITLE6=Neon
TTITLE7=The Warmest Rain
TTITLE8=Contra-Indications
TTITLE9=Vino Della Casa Rosso
EXTD=YEAR: 1990\nSONIC SON14
EXTT0=
EXTT1=
EXTT2=
EXTT3=
EXTT4=
EXTT5=
EXTT6=
EXTT7=
EXTT8=
EXTT9=
PLAYORDER=
